<?xml version="1.0" standalone="no"?>
<svg viewBox="0 0 200 200" xmlns="http://www.w3.org/2000/svg">
  <path fill="#8A3FFC" d="M22.4,-31.4C36.3,-30.8,59.8,-39.4,63.2,-35.8C66.6,-32.1,49.9,-16,50.3,0.3C50.7,16.6,68.4,33.1,70.3,46C72.3,58.9,58.5,68.2,44.2,65.1C29.8,62,14.9,46.6,0.8,45.2C-13.3,43.8,-26.6,56.4,-30.4,53.4C-34.2,50.4,-28.6,31.9,-34.2,20.4C-39.9,8.9,-56.7,4.4,-59.3,-1.5C-61.8,-7.4,-50,-14.7,-40.3,-19C-30.5,-23.3,-22.7,-24.6,-16.3,-29.6C-9.9,-34.6,-5,-43.4,-0.4,-42.7C4.2,-42.1,8.5,-32.1,22.4,-31.4Z" transform="translate(100 100)" />
</svg>
