<?xml version="1.0" standalone="no"?>
<svg viewBox="0 0 200 200" xmlns="http://www.w3.org/2000/svg">
  <path fill="#FF0066" d="M29.2,-57.4C37.1,-46.1,42.1,-36.6,41.8,-27.4C41.5,-18.1,35.9,-9.1,35.4,-0.3C34.9,8.5,39.4,16.9,38.8,24.5C38.1,32.1,32.2,38.9,24.9,40C17.6,41.2,8.8,36.6,-1.8,39.8C-12.5,43,-24.9,53.9,-30.7,51.8C-36.4,49.8,-35.4,34.8,-34.8,24C-34.2,13.3,-34,6.6,-36.3,-1.3C-38.6,-9.3,-43.4,-18.6,-40.9,-23.9C-38.3,-29.2,-28.4,-30.6,-20.3,-41.7C-12.3,-52.9,-6.1,-73.9,2.3,-77.8C10.7,-81.8,21.4,-68.7,29.2,-57.4Z" transform="translate(100 100)" />
</svg>
